<svg id="visual" viewBox="0 0 900 600" width="900" height="600" xmlns="http://www.w3.org/2000/svg" xmlns:xlink="http://www.w3.org/1999/xlink" version="1.1"><rect x="0" y="0" width="900" height="600" fill="#282a36"></rect><path d="M0 445L129 385L257 381L386 360L514 428L643 378L771 402L900 382L900 601L771 601L643 601L514 601L386 601L257 601L129 601L0 601Z" fill="#1a7df5"></path><path d="M0 457L129 405L257 449L386 465L514 399L643 436L771 469L900 414L900 601L771 601L643 601L514 601L386 601L257 601L129 601L0 601Z" fill="#0d74f9"></path><path d="M0 489L129 451L257 444L386 506L514 472L643 493L771 491L900 511L900 601L771 601L643 601L514 601L386 601L257 601L129 601L0 601Z" fill="#116afb"></path><path d="M0 504L129 503L257 518L386 489L514 534L643 482L771 484L900 538L900 601L771 601L643 601L514 601L386 601L257 601L129 601L0 601Z" fill="#225ffd"></path><path d="M0 547L129 528L257 572L386 567L514 537L643 538L771 532L900 571L900 601L771 601L643 601L514 601L386 601L257 601L129 601L0 601Z" fill="#3453fd"></path></svg>