<svg id="visual" viewBox="0 0 900 600" width="900" height="600" xmlns="http://www.w3.org/2000/svg" xmlns:xlink="http://www.w3.org/1999/xlink" version="1.1"><rect x="0" y="0" width="900" height="600" fill="#001220"></rect><path d="M0 251L25 273C50 295 100 339 150 364C200 389 250 395 300 398.5C350 402 400 403 450 404.5C500 406 550 408 600 381.3C650 354.7 700 299.3 750 286.3C800 273.3 850 302.7 875 317.3L900 332L900 601L875 601C850 601 800 601 750 601C700 601 650 601 600 601C550 601 500 601 450 601C400 601 350 601 300 601C250 601 200 601 150 601C100 601 50 601 25 601L0 601Z" fill="#4facf7"></path><path d="M0 395L25 380C50 365 100 335 150 343.2C200 351.3 250 397.7 300 412.3C350 427 400 410 450 395.7C500 381.3 550 369.7 600 380.2C650 390.7 700 423.3 750 421.7C800 420 850 384 875 366L900 348L900 601L875 601C850 601 800 601 750 601C700 601 650 601 600 601C550 601 500 601 450 601C400 601 350 601 300 601C250 601 200 601 150 601C100 601 50 601 25 601L0 601Z" fill="#1e97fd"></path><path d="M0 425L25 421.8C50 418.7 100 412.3 150 428C200 443.7 250 481.3 300 485C350 488.7 400 458.3 450 439.3C500 420.3 550 412.7 600 424.8C650 437 700 469 750 487.7C800 506.3 850 511.7 875 514.3L900 517L900 601L875 601C850 601 800 601 750 601C700 601 650 601 600 601C550 601 500 601 450 601C400 601 350 601 300 601C250 601 200 601 150 601C100 601 50 601 25 601L0 601Z" fill="#0080ff"></path><path d="M0 475L25 473.5C50 472 100 469 150 470.8C200 472.7 250 479.3 300 482.8C350 486.3 400 486.7 450 499C500 511.3 550 535.7 600 544.7C650 553.7 700 547.3 750 545.8C800 544.3 850 547.7 875 549.3L900 551L900 601L875 601C850 601 800 601 750 601C700 601 650 601 600 601C550 601 500 601 450 601C400 601 350 601 300 601C250 601 200 601 150 601C100 601 50 601 25 601L0 601Z" fill="#0066ff"></path></svg>